<svg width="99" height="99" viewBox="0 0 99 99" fill="none" xmlns="http://www.w3.org/2000/svg">
<circle cx="49.5" cy="49.5" r="49.5" fill="#DDFFBC"/>
<path fill-rule="evenodd" clip-rule="evenodd" d="M42.5082 24.8333H57.419C63.9682 24.8333 69.2607 27.4191 69.3332 33.9925V70.6775C69.3332 71.0883 69.2365 71.4991 69.0432 71.8616C68.729 72.4416 68.1973 72.8766 67.5448 73.07C66.9165 73.2633 66.2157 73.1666 65.6357 72.8283L49.9757 64.9983L34.2915 72.8283C33.9314 73.0192 33.5182 73.1425 33.1073 73.1425C31.754 73.1425 30.6665 72.0308 30.6665 70.6775V33.9925C30.6665 27.4191 35.9832 24.8333 42.5082 24.8333ZM40.8648 43.2483H59.0623C60.1015 43.2483 60.9473 42.4001 60.9473 41.3391C60.9473 40.2758 60.1015 39.43 59.0623 39.43H40.8648C39.8257 39.43 38.9798 40.2758 38.9798 41.3391C38.9798 42.4001 39.8257 43.2483 40.8648 43.2483Z" fill="#130F26"/>
</svg>
