<svg width="30" height="34" viewBox="0 0 30 34" fill="none" xmlns="http://www.w3.org/2000/svg">
<path fill-rule="evenodd" clip-rule="evenodd" d="M0.833496 14.1962C0.833496 6.52974 7.23996 0.333252 14.9892 0.333252C22.7604 0.333252 29.1668 6.52974 29.1668 14.1962C29.1668 18.0594 27.7618 21.646 25.4493 24.6859C22.8982 28.0391 19.7538 30.9607 16.2144 33.254C15.4043 33.7839 14.6733 33.8239 13.7842 33.254C10.2247 30.9607 7.08031 28.0391 4.551 24.6859C2.2368 21.646 0.833496 18.0594 0.833496 14.1962ZM10.3239 14.6278C10.3239 17.1961 12.4196 19.216 14.9892 19.216C17.5606 19.216 19.6764 17.1961 19.6764 14.6278C19.6764 12.0796 17.5606 9.96131 14.9892 9.96131C12.4196 9.96131 10.3239 12.0796 10.3239 14.6278Z" fill="#B5BF4C"/>
</svg>
