<svg width="21" height="13" viewBox="0 0 21 13" fill="none" xmlns="http://www.w3.org/2000/svg">
<path d="M1.8173 0.428879H18.8595C19.8615 0.428879 20.6768 1.13033 20.6768 1.99251V11.054C20.6768 11.9162 19.8615 12.6177 18.8595 12.6177H1.8173C0.81525 12.6177 1.33514e-05 11.9162 1.33514e-05 11.054V1.99251C1.33514e-05 1.13033 0.81525 0.428879 1.8173 0.428879ZM2.05448 1.4713L2.29703 1.64507L9.61736 6.88989C10.0352 7.18921 10.6417 7.18921 11.0594 6.88989L18.3797 1.64507L18.6223 1.4713H2.05448ZM19.4652 2.22386L13.5008 6.49721L19.4652 9.91264V2.22386ZM1.8173 11.5752H18.8595C19.1522 11.5752 19.397 11.3957 19.4531 11.1579L12.5294 7.19317L11.8346 7.69096C11.4011 8.00153 10.8697 8.15682 10.3383 8.15682C9.80697 8.15682 9.27559 8.00153 8.84207 7.69096L8.1473 7.19317L1.22366 11.1579C1.27979 11.3957 1.5246 11.5752 1.8173 11.5752ZM1.21154 9.91264L7.17597 6.49725L1.21154 2.22386V9.91264Z" fill="#000842"/>
</svg>
