<svg width="99" height="99" viewBox="0 0 99 99" fill="none" xmlns="http://www.w3.org/2000/svg">
<circle cx="49.5" cy="49.5" r="49.5" fill="#DDFFBC"/>
<circle cx="49.5" cy="49.5" r="49.5" fill="#DDFFBC"/>
<path fill-rule="evenodd" clip-rule="evenodd" d="M59.3039 23.0434C60.8288 23.0434 62.3513 23.2584 63.7989 23.7442C72.7188 26.6442 75.933 36.4317 73.248 44.9867C71.7255 49.3584 69.2364 53.3484 65.9763 56.6084C61.3097 61.1276 56.1888 65.1393 50.6764 68.5951L50.0722 68.96L49.4439 68.5709C43.9121 65.1393 38.7622 61.1276 34.0521 56.5843C30.8138 53.3242 28.3222 49.3584 26.7755 44.9867C24.0447 36.4317 27.2589 26.6442 36.2755 23.6934C36.9763 23.4518 37.6989 23.2826 38.4239 23.1884H38.7139C39.393 23.0893 40.0672 23.0434 40.7439 23.0434H41.0097C42.5322 23.0893 44.0064 23.3551 45.4346 23.8409H45.5772C45.6739 23.8868 45.7464 23.9375 45.7947 23.9834C46.3288 24.155 46.8339 24.3484 47.3172 24.6142L48.2355 25.025C48.4575 25.1434 48.7065 25.3242 48.9218 25.4805C49.0582 25.5795 49.181 25.6687 49.2747 25.7259C49.3142 25.7491 49.3542 25.7725 49.3947 25.7961C49.6019 25.9171 49.8177 26.0431 49.9997 26.1826C52.6846 24.1309 55.9447 23.0192 59.3039 23.0434ZM65.7322 40.4434C66.723 40.4168 67.5689 39.6217 67.6414 38.6043V38.3167C67.7139 34.9309 65.6621 31.8642 62.5422 30.68C61.5514 30.3393 60.4639 30.8734 60.1014 31.8884C59.7631 32.9034 60.2947 34.015 61.3097 34.3751C62.8588 34.9551 63.8955 36.48 63.8955 38.1693V38.2442C63.8496 38.7976 64.0164 39.3317 64.3547 39.7425C64.693 40.1534 65.2005 40.3926 65.7322 40.4434Z" fill="#130F26"/>
</svg>
