<svg width="99" height="99" viewBox="0 0 99 99" fill="none" xmlns="http://www.w3.org/2000/svg">
<circle cx="49.5" cy="49.5" r="49.5" fill="#DDFFBC"/>
<circle cx="49.5" cy="49.5" r="49.5" fill="#DDFFBC"/>
<path d="M43.0756 65.2023V57.8128C43.0756 55.9265 44.6159 54.3973 46.5161 54.3973H53.462C54.3745 54.3973 55.2496 54.7571 55.8948 55.3977C56.54 56.0382 56.9025 56.9069 56.9025 57.8128V65.2023C56.8967 65.9865 57.2065 66.7406 57.7631 67.2971C58.3196 67.8537 59.077 68.1667 59.8669 68.1667H64.6057C66.819 68.1724 68.9435 67.3036 70.5105 65.752C72.0775 64.2004 72.9582 62.0936 72.9582 59.8964V38.845C72.9581 37.0702 72.1657 35.3867 70.7943 34.248L54.6737 21.4667C51.8695 19.2257 47.8517 19.2981 45.1312 21.6386L29.3784 34.248C27.9423 35.3531 27.0839 37.0416 27.0415 38.845V59.875C27.0415 64.4544 30.781 68.1667 35.3939 68.1667H40.0245C41.6653 68.1667 42.9987 66.8526 43.0106 65.2238L43.0756 65.2023Z" fill="#130F26"/>
</svg>
