<svg width="18" height="16" viewBox="0 0 18 16" fill="none" xmlns="http://www.w3.org/2000/svg">
<g clip-path="url(#clip0_9_4031)">
<path d="M9.35645 5.81913L11.794 7.91643L11.8056 7.80658C11.8056 6.70465 10.7648 5.80914 9.48413 5.80914L9.35645 5.81913Z" fill="#ABABAB"/>
<path d="M9.48426 4.4775C11.62 4.4775 13.3534 5.96893 13.3534 7.80657C13.3534 8.23602 13.2528 8.64549 13.0787 9.02166L15.3421 10.9692C16.5106 10.1302 17.4314 9.04498 18.0002 7.80657C16.6576 4.88367 13.3573 2.81299 9.4843 2.81299C8.40094 2.81299 7.36404 2.97943 6.40063 3.27905L8.07209 4.71386C8.50925 4.56739 8.98515 4.4775 9.48426 4.4775Z" fill="#ABABAB"/>
<path d="M1.74598 2.66324L3.51028 4.18129L3.86238 4.48424C2.58558 5.34314 1.57575 6.48501 0.972168 7.80663C2.31089 10.7295 5.61509 12.8002 9.4842 12.8002C10.6836 12.8002 11.8289 12.6005 12.8774 12.2376L13.2063 12.5206L15.462 14.4647L16.4486 13.6192L2.7326 1.81433L1.74598 2.66324ZM6.02522 6.34185L7.22077 7.37053C7.18595 7.51369 7.16274 7.65682 7.16274 7.80663C7.16274 8.90855 8.20351 9.80406 9.4842 9.80406C9.65831 9.80406 9.82469 9.78408 9.98719 9.75412L11.1827 10.7828C10.6681 11.0025 10.0955 11.1357 9.4842 11.1357C7.34845 11.1357 5.61509 9.64426 5.61509 7.80663C5.61509 7.28065 5.76986 6.78794 6.02522 6.34185Z" fill="#ABABAB"/>
</g>
<defs>
<clipPath id="clip0_9_4031">
<rect width="17.0279" height="14.6512" fill="white" transform="translate(0.972168 0.813965)"/>
</clipPath>
</defs>
</svg>
