<svg width="21" height="19" viewBox="0 0 21 19" fill="none" xmlns="http://www.w3.org/2000/svg">
<g clip-path="url(#clip0_104_1864)">
<path d="M15.8159 8.19378V5.37639C15.8247 4.10158 15.2329 2.87581 14.1765 1.98194C13.1552 1.10692 11.8182 0.62793 10.4024 0.62793C10.3805 0.62793 10.3542 0.62793 10.3323 0.62793C7.31205 0.631701 4.85732 2.75889 4.85732 5.37639V8.19378C3.71762 8.3107 2.88477 9.13292 2.88477 10.1286V16.4574C2.88477 17.5323 3.88419 18.4186 5.13348 18.4186H15.5442C16.7935 18.4186 17.7929 17.5323 17.7929 16.4574V10.1286C17.7885 9.13669 16.9556 8.3107 15.8159 8.19378ZM5.72963 5.37639H5.73401C5.73401 3.17377 7.79861 1.37094 10.3366 1.37094H10.341C11.5465 1.36717 12.7037 1.77827 13.5585 2.50996C14.4483 3.26806 14.9436 4.30148 14.9349 5.37639V8.19756H13.9705V5.37639C13.9793 4.52023 13.5848 3.69802 12.879 3.09456C12.2128 2.52128 11.3098 2.19692 10.3673 2.19692H10.341C8.32463 2.19692 6.69398 3.62259 6.69398 5.37262V8.19756H5.72963V5.37639ZM13.0982 5.37639V8.19756H7.57506V5.37639C7.57506 4.04124 8.81119 2.95501 10.3454 2.95501H10.3717C11.0818 2.95501 11.7656 3.20017 12.2697 3.6339C12.8045 4.09404 13.107 4.7239 13.0982 5.37639ZM16.9556 16.4687C16.9556 17.1287 16.3332 17.6643 15.5661 17.6643H5.15101C4.38391 17.6643 3.76146 17.1287 3.76146 16.4687V10.1475C3.76146 9.48745 4.38391 8.95188 5.15101 8.95188H15.5661C16.3332 8.95188 16.9556 9.48745 16.9556 10.1475V16.4687Z" fill="#000842"/>
<path d="M11.853 13.0742C11.6601 12.4896 11.0421 12.0898 10.3363 12.0898C9.46403 12.0898 8.75391 12.6971 8.75391 13.4514C8.75391 14.0586 9.21855 14.5904 9.89799 14.7564V15.8124C9.89799 16.0199 10.0952 16.1896 10.3363 16.1896C10.5774 16.1896 10.7747 16.0199 10.7747 15.8124V14.7564C11.6119 14.5489 12.0985 13.7946 11.853 13.0742ZM10.3363 14.0549C9.94621 14.0549 9.6306 13.7833 9.6306 13.4476C9.6306 13.112 9.94621 12.8404 10.3363 12.8404C10.7265 12.8404 11.0421 13.112 11.0421 13.4476C11.0421 13.7833 10.7265 14.0549 10.3363 14.0549Z" fill="#000842"/>
</g>
<defs>
<clipPath id="clip0_104_1864">
<rect width="20.6767" height="17.7907" fill="white" transform="translate(0 0.62793)"/>
</clipPath>
</defs>
</svg>
