<svg width="99" height="99" viewBox="0 0 99 99" fill="none" xmlns="http://www.w3.org/2000/svg">
<circle cx="49.5" cy="49.5" r="49.5" fill="#DDFFBC"/>
<circle cx="49.5" cy="49.5" r="49.5" fill="#DDFFBC"/>
<path d="M72.8023 27.2398C71.5935 25.9992 69.8044 25.5369 68.1362 26.0235L29.2362 37.3356C27.4761 37.8245 26.2286 39.2282 25.8925 41.0114C25.5492 42.8262 26.7484 45.1299 28.315 46.0933L40.4783 53.569C41.7258 54.3353 43.3359 54.1431 44.3683 53.1019L58.2964 39.0871C58.9975 38.3573 60.158 38.3573 60.8591 39.0871C61.5602 39.7926 61.5602 40.936 60.8591 41.6658L46.9068 55.683C45.872 56.7218 45.6786 58.3395 46.4402 59.5948L53.8721 71.88C54.7424 73.3396 56.2414 74.1667 57.8854 74.1667C58.0788 74.1667 58.2964 74.1667 58.4898 74.1424C60.3756 73.8991 61.8745 72.6098 62.4306 70.7852L73.9628 31.935C74.4705 30.2807 74.0112 28.4805 72.8023 27.2398" fill="#130F26"/>
</svg>
