<svg width="20" height="18" viewBox="0 0 20 18" fill="none" xmlns="http://www.w3.org/2000/svg">
<g clip-path="url(#clip0_104_1883)">
<path d="M9.59154 8.60065C10.8794 8.60065 11.9944 8.20323 12.9057 7.41911C13.8167 6.63512 14.2788 5.67587 14.2788 4.56765C14.2788 3.45982 13.8169 2.50044 12.9056 1.7162C11.9943 0.932335 10.8792 0.534912 9.59154 0.534912C8.30355 0.534912 7.18868 0.932335 6.27751 1.71632C5.36634 2.50031 4.9043 3.4597 4.9043 4.56765C4.9043 5.67587 5.36634 6.63525 6.27751 7.41924C7.18898 8.2031 8.304 8.60065 9.59154 8.60065ZM7.08401 2.41012C7.78316 1.80856 8.60332 1.51614 9.59154 1.51614C10.5796 1.51614 11.3999 1.80856 12.0992 2.41012C12.7984 3.01181 13.1384 3.71762 13.1384 4.56765C13.1384 5.41794 12.7984 6.12362 12.0992 6.72531C11.3999 7.327 10.5796 7.61942 9.59154 7.61942C8.60361 7.61942 7.78346 7.32688 7.08401 6.72531C6.38471 6.12375 6.04471 5.41794 6.04471 4.56765C6.04471 3.71762 6.38471 3.01181 7.08401 2.41012Z" fill="black"/>
<path d="M17.7933 13.4104C17.767 13.0841 17.7139 12.7282 17.6356 12.3524C17.5566 11.9737 17.4549 11.6158 17.3332 11.2886C17.2073 10.9505 17.0364 10.6166 16.8248 10.2965C16.6055 9.9644 16.3478 9.67518 16.0586 9.43718C15.7561 9.1882 15.3858 8.98802 14.9576 8.84201C14.5309 8.69676 14.058 8.62317 13.5522 8.62317C13.3535 8.62317 13.1614 8.69331 12.7904 8.90115C12.562 9.02928 12.2949 9.17747 11.9968 9.34137C11.7419 9.48113 11.3965 9.61207 10.97 9.73062C10.5538 9.84649 10.1313 9.90525 9.71407 9.90525C9.29716 9.90525 8.87461 9.84649 8.45815 9.73062C8.03203 9.6122 7.68654 9.48126 7.43206 9.3415C7.13675 9.17913 6.8695 9.03095 6.63773 8.90103C6.267 8.69318 6.07488 8.62305 5.87622 8.62305C5.37023 8.62305 4.8975 8.69676 4.47094 8.84213C4.04305 8.98789 3.67261 9.18808 3.36988 9.43731C3.08065 9.67543 2.82291 9.96453 2.60376 10.2965C2.39249 10.6166 2.22145 10.9504 2.09554 11.2888C1.97395 11.6159 1.87224 11.9737 1.79326 12.3524C1.71486 12.7277 1.66186 13.0837 1.63558 13.4108C1.60975 13.7305 1.59668 14.0633 1.59668 14.3995C1.59668 15.2736 1.91961 15.9812 2.5564 16.503C3.18533 17.018 4.01736 17.2791 5.02949 17.2791H14.3998C15.4117 17.2791 16.2437 17.018 16.8728 16.503C17.5097 15.9816 17.8326 15.2737 17.8326 14.3994C17.8325 14.062 17.8193 13.7293 17.7933 13.4104ZM16.0865 15.7921C15.6709 16.1324 15.1192 16.2979 14.3997 16.2979H5.02949C4.30985 16.2979 3.75813 16.1324 3.34271 15.7923C2.93515 15.4584 2.73709 15.0028 2.73709 14.3995C2.73709 14.0858 2.74912 13.776 2.77317 13.4786C2.79663 13.1868 2.84458 12.8663 2.9157 12.5257C2.98593 12.1894 3.07531 11.8737 3.18161 11.5879C3.28361 11.3139 3.42273 11.0426 3.59526 10.7812C3.75991 10.5321 3.94936 10.3184 4.15841 10.1462C4.35395 9.98509 4.60041 9.85326 4.89082 9.75438C5.1594 9.66291 5.46125 9.61284 5.78892 9.6053C5.82886 9.62357 5.89998 9.65844 6.01519 9.72308C6.24963 9.85454 6.51985 10.0045 6.81857 10.1687C7.15531 10.3534 7.58914 10.5202 8.10746 10.6642C8.63735 10.8116 9.17779 10.8865 9.71421 10.8865C10.2506 10.8865 10.7912 10.8116 11.3208 10.6643C11.8396 10.5201 12.2733 10.3534 12.6104 10.1684C12.9162 10.0003 13.1788 9.85466 13.4132 9.72308C13.5284 9.65857 13.5996 9.62357 13.6395 9.6053C13.9673 9.61284 14.2692 9.66291 14.5379 9.75438C14.8282 9.85326 15.0746 9.98522 15.2702 10.1462C15.4792 10.3183 15.6687 10.532 15.8333 10.7813C16.006 11.0426 16.1453 11.3141 16.2471 11.5878C16.3536 11.874 16.4431 12.1895 16.5132 12.5256C16.5841 12.8668 16.6322 13.1875 16.6557 13.4787V13.479C16.6799 13.7752 16.6921 14.0849 16.6922 14.3995C16.6921 15.0029 16.494 15.4584 16.0865 15.7921Z" fill="black"/>
</g>
<defs>
<clipPath id="clip0_104_1883">
<rect width="19.4605" height="16.7442" fill="white" transform="translate(0 0.534912)"/>
</clipPath>
</defs>
</svg>
