<svg width="269" height="269" viewBox="0 0 269 269" fill="none" xmlns="http://www.w3.org/2000/svg">
<mask id="mask0_22_484" style="mask-type:alpha" maskUnits="userSpaceOnUse" x="0" y="7" width="269" height="254">
<path d="M259.924 101.374C250.108 80.7321 238.662 60.9064 225.693 42.0849L221.51 36.0726C216.36 28.6009 209.61 22.37 201.751 17.8333C193.892 13.2964 185.12 10.5675 176.075 9.84465L168.731 9.25284C145.946 7.42353 123.053 7.42353 100.269 9.25284L92.9251 9.84465C83.8792 10.5675 75.108 13.2964 67.2488 17.8333C59.3897 22.37 52.6399 28.6009 47.4901 36.0726L43.307 42.1387C30.3386 60.9602 18.892 80.7859 9.07609 101.427L5.91528 108.072C2.02067 116.267 0 125.227 0 134.3C0 143.373 2.02067 152.333 5.91528 160.528L9.07609 167.172C18.892 187.815 30.3386 207.64 43.307 226.461L47.4901 232.527C52.6399 239.999 59.3897 246.23 67.2488 250.767C75.108 255.304 83.8792 258.033 92.9251 258.755L100.269 259.347C123.053 261.176 145.946 261.176 168.731 259.347L176.075 258.755C185.127 258.024 193.903 255.282 201.762 250.731C209.622 246.179 216.368 239.933 221.51 232.447L225.693 226.38C238.662 207.56 250.108 187.734 259.924 167.092L263.085 160.447C266.978 152.252 269 143.293 269 134.219C269 125.146 266.978 116.186 263.085 107.991L259.924 101.374Z" fill="white"/>
</mask>
<g mask="url(#mask0_22_484)">
<rect x="-2" width="271" height="272" fill="#A2E5F4"/>
</g>
</svg>
